# xmcd
#
# Track frame offsets:
#	150
#	14975
#	29067
#	45097
#	66097
#	82227
#	96017
#	110102
#	119540
#	135060
#	148092
#	163337
#	177560
#	189897
#	202437
#	218540
#	229410
#	241727
#	252752
#	265880
#
# Disc length: 3667 seconds
#
# Revision: 1
# Processed by: cddbd v1.5.1PL0 Copyright (c) Steve Scherf et al.
# Submitted via: EasyCDDAExtractor 7.1.0.1
#
DISCID=2d0e5114
DTITLE=Various Artist - Un mundo de musica vol 2
DYEAR=1900
DGENRE=
TTITLE0=Julio Sosa y Leopoldo F ederico - Mano a mano
TTITLE1=Maria Graña - Cancion desesperada
TTITLE2=Ricardo Pereyra - Uno
TTITLE3=Amelita Baltar - Balada para un loco
TTITLE4=Jorge Falcon - Volvio una noche
TTITLE5=Nestor Roldan - Pasional
TTITLE6=Claudio Berge - Historia de un amor
TTITLE7=Enrique Dumas y Osvaldo Requena - Tomo y obligo
TTITLE8=Nelly Vasquez - Naranjo en flor
TTITLE9=Mario Bustos - Adios Pampa mia
TTITLE10=Virginia Luque - Mi Buenos Aires querido
TTITLE11=Jorge Sobral y Alberto Giaimo - Volver
TTITLE12=Juan Carlos Granelli - Rencor
TTITLE13=Raul Lavie - Lejana tierra mia
TTITLE14=Argentino Ledesma - Cuartito azul
TTITLE15=Floreal Ruiz - Destellos
TTITLE16=Roberto Rufino - Malena
TTITLE17=Jorge Valdez - Hasta siempre amor
TTITLE18=Nestor Fabian - Rondando tu esquina
TTITLE19=Alberto Castillo - Ninguna
EXTD=
EXTT0=
EXTT1=
EXTT2=
EXTT3=
EXTT4=
EXTT5=
EXTT6=
EXTT7=
EXTT8=
EXTT9=
EXTT10=
EXTT11=
EXTT12=
EXTT13=
EXTT14=
EXTT15=
EXTT16=
EXTT17=
EXTT18=
EXTT19=
PLAYORDER=
